<?xml version="1.0" encoding="UTF-8"?>
<svg id="Layer_2" data-name="Layer 2" xmlns="http://www.w3.org/2000/svg" viewBox="0 0 62.31 34.63">
  <defs>
    <style>
      .cls-1 {
        fill: #00adff;
      }

      .cls-2 {
        fill: #036;
      }

      .cls-3 {
        fill: #3095d9;
      }
    </style>
  </defs>
  <g id="Layer_1-2" data-name="Layer 1">
    <g>
      <path class="cls-1" d="m45.59,17.32l11.54-11.54,5.06-5.06c.26-.26.08-.72-.3-.72h-9.66c-.56,0-1.1.22-1.49.62l-10.93,10.93-5.77,5.77h0l-5.77,5.77-5.77-5.77-5.77,5.77,5.77,5.77,4.57,4.57c.67.67,1.74.67,2.41,0l4.57-4.57,5.77-5.77,5.77-5.77h0Z"/>
      <g>
        <path class="cls-2" d="m38.8,5.77h-9.66c-.56,0-1.1.22-1.49.62l-5.15,5.15-5.77,5.77-5.77,5.77h0l-5.77,5.77L.12,33.92c-.26.26-.08.72.3.72h9.66c.56,0,1.1-.22,1.49-.62l5.15-5.15,5.77-5.77,5.77-5.77h0s5.77-5.77,5.77-5.77l5.06-5.06c.26-.26.08-.72-.3-.72Z"/>
        <path class="cls-2" d="m10.08,5.77H.42c-.37,0-.56.45-.3.72l5.06,5.06,5.77,5.77,5.77-5.77-5.15-5.15c-.4-.4-.93-.62-1.49-.62Z"/>
      </g>
      <polygon class="cls-3" points="21.59 27.96 19.61 25.97 25.38 20.2 26.08 20.9 21.59 27.96"/>
    </g>
  </g>
</svg>