<svg xmlns="http://www.w3.org/2000/svg" width="247.514" height="35.251" viewBox="0 0 247.514 35.251">
  <g id="Group_246" data-name="Group 246" transform="translate(-121.606 -48.292)">
    <g id="Group_242" data-name="Group 242">
      <path id="Path_217" data-name="Path 217" d="M192.868,82.372q-1.006.332-2.08.572a19.628,19.628,0,0,1-2.265.365,24.937,24.937,0,0,1-2.555.124,21.519,21.519,0,0,1-5.322-.62,12.484,12.484,0,0,1-4.187-1.866,8.765,8.765,0,0,1-2.733-3.112,10.2,10.2,0,0,1,0-8.717,8.756,8.756,0,0,1,2.733-3.112,12.485,12.485,0,0,1,4.187-1.866,21.471,21.471,0,0,1,5.322-.62,24.656,24.656,0,0,1,2.555.124,19.415,19.415,0,0,1,2.265.365q1.074.24,2.08.571t2,.744v4.6q-.784-.428-1.652-.847a14.792,14.792,0,0,0-1.914-.758,16.7,16.7,0,0,0-2.3-.551,16.956,16.956,0,0,0-2.823-.213,13.687,13.687,0,0,0-4,.5,7.005,7.005,0,0,0-2.54,1.323,4.542,4.542,0,0,0-1.336,1.893,6.458,6.458,0,0,0-.386,2.21,6.769,6.769,0,0,0,.166,1.5,4.776,4.776,0,0,0,.55,1.39,5,5,0,0,0,1.006,1.205,5.721,5.721,0,0,0,1.542.951,9.982,9.982,0,0,0,2.155.626,15.785,15.785,0,0,0,2.844.227,18.083,18.083,0,0,0,2.823-.2,15.935,15.935,0,0,0,2.3-.531,14.246,14.246,0,0,0,1.914-.75q.867-.42,1.652-.861v4.6Q193.873,82.042,192.868,82.372Z" fill="#036"/>
      <path id="Path_218" data-name="Path 218" d="M203.04,82.923h-5.109V64h12.807a12.449,12.449,0,0,1,3.5.427,6.2,6.2,0,0,1,2.341,1.212,4.55,4.55,0,0,1,1.308,1.893,7.137,7.137,0,0,1,.407,2.472,5.916,5.916,0,0,1-.338,2.093,4.846,4.846,0,0,1-.909,1.536,5.426,5.426,0,0,1-1.329,1.081,8.98,8.98,0,0,1-1.6.73l6.2,7.477h-5.977l-5.729-6.968H203.04Zm10.094-12.945a2.685,2.685,0,0,0-.144-.936,1.286,1.286,0,0,0-.5-.626,2.538,2.538,0,0,0-.957-.352,8.5,8.5,0,0,0-1.494-.11h-7V72h7a8.5,8.5,0,0,0,1.494-.11,2.538,2.538,0,0,0,.957-.352,1.286,1.286,0,0,0,.5-.626A2.687,2.687,0,0,0,213.134,69.978Z" fill="#036"/>
      <path id="Path_219" data-name="Path 219" d="M245.845,73.476a9.837,9.837,0,0,1-.9,4.3,8.392,8.392,0,0,1-2.562,3.119,11.71,11.71,0,0,1-4.041,1.893,22.593,22.593,0,0,1-10.687,0,11.856,11.856,0,0,1-4.069-1.893A8.463,8.463,0,0,1,221,77.78a10.642,10.642,0,0,1,0-8.607,8.463,8.463,0,0,1,2.589-3.119,11.876,11.876,0,0,1,4.069-1.894,22.627,22.627,0,0,1,10.687,0,11.73,11.73,0,0,1,4.041,1.894,8.392,8.392,0,0,1,2.562,3.119A9.832,9.832,0,0,1,245.845,73.476Zm-5.164,0a6.9,6.9,0,0,0-.338-2.114,4.586,4.586,0,0,0-1.2-1.893,6.31,6.31,0,0,0-2.349-1.363,11.571,11.571,0,0,0-3.786-.524,13.609,13.609,0,0,0-2.713.241,8.28,8.28,0,0,0-2.025.668,5.565,5.565,0,0,0-1.432,1,5,5,0,0,0-.923,1.225,5.107,5.107,0,0,0-.488,1.364,6.928,6.928,0,0,0-.145,1.4,7.12,7.12,0,0,0,.145,1.419,5.1,5.1,0,0,0,.488,1.37,4.9,4.9,0,0,0,.923,1.219,5.531,5.531,0,0,0,1.432.984,8.371,8.371,0,0,0,2.025.661,13.535,13.535,0,0,0,2.713.241,11.574,11.574,0,0,0,3.786-.523,6.31,6.31,0,0,0,2.349-1.363,4.583,4.583,0,0,0,1.2-1.894A6.893,6.893,0,0,0,240.681,73.476Z" fill="#036"/>
      <path id="Path_220" data-name="Path 220" d="M265.8,69.331q-.537-.261-1.419-.592t-2-.627a23.093,23.093,0,0,0-2.424-.5,17.8,17.8,0,0,0-2.685-.2q-1.1,0-1.88.069a11.761,11.761,0,0,0-1.309.179,3.919,3.919,0,0,0-.839.255,1.9,1.9,0,0,0-.476.3.723.723,0,0,0-.213.3.921.921,0,0,0-.048.275.893.893,0,0,0,.413.723,4.036,4.036,0,0,0,1.129.551,16.9,16.9,0,0,0,1.667.455q.949.213,2.017.44t2.2.5q1.137.269,2.2.627a15.417,15.417,0,0,1,2.018.833,7.644,7.644,0,0,1,1.666,1.108,4.8,4.8,0,0,1,1.13,1.46,4.17,4.17,0,0,1,.413,1.887,5.254,5.254,0,0,1-.482,2.341,5.034,5.034,0,0,1-1.288,1.652,6.5,6.5,0,0,1-1.866,1.081,12.914,12.914,0,0,1-2.224.627,18.515,18.515,0,0,1-2.355.289q-1.191.069-2.265.069a27.4,27.4,0,0,1-5.2-.462,25.938,25.938,0,0,1-4.221-1.15V77.305a17.326,17.326,0,0,0,4.3,1.638,21.665,21.665,0,0,0,5.171.593,16.54,16.54,0,0,0,2.651-.173,6.434,6.434,0,0,0,1.6-.44,1.83,1.83,0,0,0,.785-.585,1.116,1.116,0,0,0,.207-.606,1,1,0,0,0-.413-.792,3.827,3.827,0,0,0-1.13-.593,14.745,14.745,0,0,0-1.666-.468q-.949-.213-2.017-.427t-2.2-.461q-1.13-.248-2.2-.585a16.086,16.086,0,0,1-2.018-.785,7.39,7.39,0,0,1-1.666-1.06,4.654,4.654,0,0,1-1.129-1.419,4.027,4.027,0,0,1-.413-1.866,4.909,4.909,0,0,1,.44-2.162,4.712,4.712,0,0,1,1.192-1.549,6.272,6.272,0,0,1,1.735-1.04,11.678,11.678,0,0,1,2.072-.62,18,18,0,0,1,2.2-.3q1.115-.083,2.12-.082,1.1,0,2.266.11t2.292.31q1.129.2,2.183.461t1.949.551Z" fill="#036"/>
      <path id="Path_221" data-name="Path 221" d="M287.552,69.331q-.537-.261-1.418-.592t-2-.627a23.093,23.093,0,0,0-2.424-.5,17.786,17.786,0,0,0-2.685-.2q-1.1,0-1.88.069a11.739,11.739,0,0,0-1.308.179,3.93,3.93,0,0,0-.84.255,1.869,1.869,0,0,0-.475.3.723.723,0,0,0-.213.3.829.829,0,0,0,.364,1,4.044,4.044,0,0,0,1.13.551,16.875,16.875,0,0,0,1.666.455q.95.213,2.017.44t2.2.5q1.136.269,2.2.627a15.458,15.458,0,0,1,2.017.833,7.675,7.675,0,0,1,1.667,1.108,4.8,4.8,0,0,1,1.129,1.46,4.17,4.17,0,0,1,.413,1.887,5.254,5.254,0,0,1-.482,2.341,5.018,5.018,0,0,1-1.287,1.652,6.512,6.512,0,0,1-1.866,1.081,12.94,12.94,0,0,1-2.224.627,18.515,18.515,0,0,1-2.355.289q-1.191.069-2.266.069a27.411,27.411,0,0,1-5.2-.462,25.966,25.966,0,0,1-4.221-1.15V77.305a17.341,17.341,0,0,0,4.3,1.638,21.673,21.673,0,0,0,5.172.593,16.526,16.526,0,0,0,2.65-.173,6.456,6.456,0,0,0,1.605-.44,1.843,1.843,0,0,0,.785-.585,1.114,1.114,0,0,0,.206-.606,1,1,0,0,0-.413-.792,3.82,3.82,0,0,0-1.129-.593,14.808,14.808,0,0,0-1.666-.468q-.951-.213-2.018-.427t-2.2-.461q-1.129-.248-2.2-.585a16.071,16.071,0,0,1-2.017-.785,7.367,7.367,0,0,1-1.666-1.06,4.657,4.657,0,0,1-1.13-1.419,4.039,4.039,0,0,1-.413-1.866,4.909,4.909,0,0,1,.441-2.162,4.723,4.723,0,0,1,1.191-1.549,6.287,6.287,0,0,1,1.735-1.04,11.688,11.688,0,0,1,2.073-.62,17.982,17.982,0,0,1,2.2-.3q1.116-.083,2.121-.082,1.1,0,2.265.11t2.293.31q1.13.2,2.183.461t1.948.551Z" fill="#036"/>
      <path id="Path_222" data-name="Path 222" d="M310.5,82.372q-1.006.332-2.08.572a19.629,19.629,0,0,1-2.265.365,24.923,24.923,0,0,1-2.555.124,21.518,21.518,0,0,1-5.322-.62,12.484,12.484,0,0,1-4.187-1.866,8.765,8.765,0,0,1-2.733-3.112,10.2,10.2,0,0,1,0-8.717,8.756,8.756,0,0,1,2.733-3.112,12.485,12.485,0,0,1,4.187-1.866,21.471,21.471,0,0,1,5.322-.62,24.642,24.642,0,0,1,2.555.124,19.415,19.415,0,0,1,2.265.365q1.074.24,2.08.571t2,.744v4.6q-.785-.428-1.652-.847a14.789,14.789,0,0,0-1.914-.758,16.7,16.7,0,0,0-2.3-.551,16.948,16.948,0,0,0-2.823-.213,13.687,13.687,0,0,0-4,.5,7.005,7.005,0,0,0-2.54,1.323,4.542,4.542,0,0,0-1.336,1.893,6.458,6.458,0,0,0-.386,2.21,6.768,6.768,0,0,0,.166,1.5,4.776,4.776,0,0,0,.55,1.39,5,5,0,0,0,1.006,1.205,5.72,5.72,0,0,0,1.542.951,10,10,0,0,0,2.155.626,15.784,15.784,0,0,0,2.844.227,18.074,18.074,0,0,0,2.823-.2,15.935,15.935,0,0,0,2.3-.531,14.243,14.243,0,0,0,1.914-.75q.867-.42,1.652-.861v4.6Q311.5,82.042,310.5,82.372Z" fill="#036"/>
      <path id="Path_223" data-name="Path 223" d="M333.671,82.923V75.032h-13v7.891h-5.109V64h5.109v6.885h13V64h5.109V82.923Z" fill="#036"/>
      <path id="Path_224" data-name="Path 224" d="M367.069,73.476a10.477,10.477,0,0,1-.366,2.844A8.737,8.737,0,0,1,365.65,78.7a34.108,34.108,0,0,0,3.47,1.129l-2.079,3.718q-1.116-.427-2.272-.895t-2.328-.992a13,13,0,0,1-3.663,1.336,21.791,21.791,0,0,1-4.544.441,20.662,20.662,0,0,1-5.35-.641,11.862,11.862,0,0,1-4.07-1.893,8.45,8.45,0,0,1-2.588-3.119,10.641,10.641,0,0,1,0-8.607,8.45,8.45,0,0,1,2.588-3.119,11.881,11.881,0,0,1,4.07-1.894,22.623,22.623,0,0,1,10.686,0,11.735,11.735,0,0,1,4.042,1.894,8.389,8.389,0,0,1,2.561,3.119A9.832,9.832,0,0,1,367.069,73.476Zm-5.165,0a6.9,6.9,0,0,0-.337-2.114,4.578,4.578,0,0,0-1.2-1.893,6.305,6.305,0,0,0-2.348-1.363,11.578,11.578,0,0,0-3.787-.524,13.617,13.617,0,0,0-2.713.241,8.286,8.286,0,0,0-2.024.668,5.554,5.554,0,0,0-1.433,1,5,5,0,0,0-.922,1.225,5.073,5.073,0,0,0-.489,1.364,7,7,0,0,0-.144,1.4,7.192,7.192,0,0,0,.144,1.419,5.064,5.064,0,0,0,.489,1.37,4.894,4.894,0,0,0,.922,1.219,5.52,5.52,0,0,0,1.433.984,8.377,8.377,0,0,0,2.024.661,13.542,13.542,0,0,0,2.713.241c.551,0,1.065-.022,1.542-.069a10.157,10.157,0,0,0,1.363-.22q-.854-.441-1.645-.888T354,77.305l2.038-3.347a26.065,26.065,0,0,0,2.258,1.377q1.281.7,2.7,1.378a4.519,4.519,0,0,0,.716-1.563A7.31,7.31,0,0,0,361.9,73.476Z" fill="#036"/>
    </g>
    <g id="Group_245" data-name="Group 245">
      <g id="Group_243" data-name="Group 243">
        <path id="Path_225" data-name="Path 225" d="M167.192,65.608l11.544-11.544,5.057-5.057a.419.419,0,0,0-.3-.715H173.84a2.112,2.112,0,0,0-1.495.619L161.42,59.836l-5.772,5.772h0l-5.772,5.772L144.1,65.608l-5.772,5.772,5.772,5.773,4.568,4.567a1.7,1.7,0,0,0,2.409,0l4.568-4.567,5.772-5.773,5.772-5.772Z" fill="#00adff"/>
      </g>
      <g id="Group_244" data-name="Group 244">
        <path id="Path_226" data-name="Path 226" d="M160.408,54.064h-9.657a2.112,2.112,0,0,0-1.5.619L144.1,59.836l-5.772,5.772-5.772,5.772h0l-5.772,5.773-5.057,5.056a.419.419,0,0,0,.3.716h9.658a2.114,2.114,0,0,0,1.494-.619l5.153-5.153L144.1,71.38l5.772-5.772h0l5.773-5.772,5.057-5.057A.419.419,0,0,0,160.408,54.064Z" fill="#036"/>
        <path id="Path_227" data-name="Path 227" d="M131.683,54.064h-9.657a.419.419,0,0,0-.3.715l5.057,5.057,5.772,5.772,5.772-5.772-5.153-5.153A2.111,2.111,0,0,0,131.683,54.064Z" fill="#036"/>
      </g>
      <path id="Path_228" data-name="Path 228" d="M143.2,76.247l-1.981-1.981,5.772-5.772.694.694Z" fill="#3095d9"/>
    </g>
  </g>
</svg>
